# xmcd
#
# Track frame offsets: 
#        150
#        26892
#        53085
#        78482
#        104215
#        126267
#        148837
#        180212
#        213095
#        233662
#
# Disc length: 3401 seconds
#
# Revision: 0
# Processed by: cddbd v1.5PL3 Copyright (c) Steve Scherf et al.
# Submitted via: ExactAudioCopy v0.95a5
#
DISCID=890d470a
DTITLE=Renee Rosnes - A Beautiful Friendship
DYEAR=2002
DGENRE=
TTITLE0=My One And Only Love
TTITLE1=Body And Soul
TTITLE2=Never Let Me Go
TTITLE3=Little Girl Blue
TTITLE4=Gone With The Wind
TTITLE5=Once I Loved
TTITLE6=Angel Eyes
TTITLE7=Stella By Starlight
TTITLE8=Everything
TTITLE9=A Beautiful Friendship
EXTD=The Drummonds featuring Renee Rosnes, Billy Drummond, Ray Drummon
EXTD=d.\nRecorded at The Studio, NY, June 19,20, 2001.\nJapanese Editi
EXTD=on.
EXTT0=
EXTT1=
EXTT2=
EXTT3=
EXTT4=
EXTT5=
EXTT6=
EXTT7=
EXTT8=
EXTT9=
PLAYORDER=
